<mxfile host="65bd71144e">
    <diagram id="C5RBs43oDa-KdzZeNtuy" name="Page-1">
        <mxGraphModel dx="778" dy="470" grid="1" gridSize="10" guides="1" tooltips="1" connect="1" arrows="1" fold="1" page="1" pageScale="1" pageWidth="827" pageHeight="1169" math="0" shadow="0">
            <root>
                <mxCell id="WIyWlLk6GJQsqaUBKTNV-0"/>
                <mxCell id="WIyWlLk6GJQsqaUBKTNV-1" parent="WIyWlLk6GJQsqaUBKTNV-0"/>
                <mxCell id="Z5hQmFH2F7mChiqIoMt5-158" value="" style="edgeStyle=none;rounded=0;orthogonalLoop=1;jettySize=auto;html=1;fontSize=9;entryX=0.5;entryY=0;entryDx=0;entryDy=0;endArrow=none;endFill=0;" parent="WIyWlLk6GJQsqaUBKTNV-1" source="Z5hQmFH2F7mChiqIoMt5-146" target="Z5hQmFH2F7mChiqIoMt5-14" edge="1">
                    <mxGeometry relative="1" as="geometry">
                        <mxPoint x="63.45724907063197" y="243" as="targetPoint"/>
                    </mxGeometry>
                </mxCell>
                <mxCell id="Z5hQmFH2F7mChiqIoMt5-254" value="" style="edgeStyle=none;rounded=0;orthogonalLoop=1;jettySize=auto;html=1;fontSize=9;exitX=0.5;exitY=1;exitDx=0;exitDy=0;endArrow=none;endFill=0;entryX=0.5;entryY=0;entryDx=0;entryDy=0;" parent="WIyWlLk6GJQsqaUBKTNV-1" source="Z5hQmFH2F7mChiqIoMt5-252" target="Z5hQmFH2F7mChiqIoMt5-146" edge="1">
                    <mxGeometry relative="1" as="geometry">
                        <mxPoint x="63.45724907063197" y="63" as="sourcePoint"/>
                    </mxGeometry>
                </mxCell>
                <mxCell id="Z5hQmFH2F7mChiqIoMt5-146" value="2.0" style="rounded=0;whiteSpace=wrap;html=1;fontSize=9;" parent="WIyWlLk6GJQsqaUBKTNV-1" vertex="1">
                    <mxGeometry x="52.30483271375464" y="143" width="22.304832713754646" height="20" as="geometry"/>
                </mxCell>
                <mxCell id="Z5hQmFH2F7mChiqIoMt5-156" value="" style="edgeStyle=none;rounded=0;orthogonalLoop=1;jettySize=auto;html=1;fontSize=9;entryX=0.5;entryY=0;entryDx=0;entryDy=0;endArrow=none;endFill=0;" parent="WIyWlLk6GJQsqaUBKTNV-1" target="Z5hQmFH2F7mChiqIoMt5-15" edge="1">
                    <mxGeometry relative="1" as="geometry">
                        <mxPoint x="63" y="163" as="sourcePoint"/>
                    </mxGeometry>
                </mxCell>
                <mxCell id="Z5hQmFH2F7mChiqIoMt5-157" value="" style="edgeStyle=none;rounded=0;orthogonalLoop=1;jettySize=auto;html=1;fontSize=9;exitX=0.5;exitY=1;exitDx=0;exitDy=0;entryX=0.5;entryY=0;entryDx=0;entryDy=0;endArrow=none;endFill=0;" parent="WIyWlLk6GJQsqaUBKTNV-1" source="Z5hQmFH2F7mChiqIoMt5-146" target="Z5hQmFH2F7mChiqIoMt5-13" edge="1">
                    <mxGeometry relative="1" as="geometry">
                        <mxPoint x="41.152416356877325" y="103" as="sourcePoint"/>
                    </mxGeometry>
                </mxCell>
                <object label="" branch="0" id="Z5hQmFH2F7mChiqIoMt5-19">
                    <mxCell style="group;fontSize=9;" parent="WIyWlLk6GJQsqaUBKTNV-1" vertex="1" connectable="0">
                        <mxGeometry x="30" y="183" width="66.17100371747212" height="20" as="geometry"/>
                    </mxCell>
                </object>
                <mxCell id="Z5hQmFH2F7mChiqIoMt5-13" value="3.0" style="rounded=0;whiteSpace=wrap;html=1;fontSize=9;" parent="Z5hQmFH2F7mChiqIoMt5-19" vertex="1">
                    <mxGeometry width="22.304832713754646" height="20" as="geometry"/>
                </mxCell>
                <mxCell id="Z5hQmFH2F7mChiqIoMt5-14" value="3.1&lt;span style=&quot;white-space: pre; font-size: 9px;&quot;&gt;&lt;/span&gt;" style="rounded=0;whiteSpace=wrap;html=1;fontSize=9;" parent="Z5hQmFH2F7mChiqIoMt5-19" vertex="1">
                    <mxGeometry x="22.304832713754646" width="22.304832713754646" height="20" as="geometry"/>
                </mxCell>
                <mxCell id="Z5hQmFH2F7mChiqIoMt5-15" value="3.2" style="rounded=0;whiteSpace=wrap;html=1;fontSize=9;" parent="Z5hQmFH2F7mChiqIoMt5-19" vertex="1">
                    <mxGeometry x="43.86617100371747" width="22.304832713754646" height="20" as="geometry"/>
                </mxCell>
                <mxCell id="Z5hQmFH2F7mChiqIoMt5-175" value="" style="edgeStyle=none;rounded=0;orthogonalLoop=1;jettySize=auto;html=1;fontSize=9;entryX=0.5;entryY=0;entryDx=0;entryDy=0;endArrow=none;endFill=0;" parent="WIyWlLk6GJQsqaUBKTNV-1" source="Z5hQmFH2F7mChiqIoMt5-176" target="Z5hQmFH2F7mChiqIoMt5-181" edge="1">
                    <mxGeometry relative="1" as="geometry">
                        <mxPoint x="129.627249070632" y="243" as="targetPoint"/>
                    </mxGeometry>
                </mxCell>
                <mxCell id="Z5hQmFH2F7mChiqIoMt5-253" value="" style="edgeStyle=none;rounded=0;orthogonalLoop=1;jettySize=auto;html=1;fontSize=9;endArrow=none;endFill=0;" parent="WIyWlLk6GJQsqaUBKTNV-1" source="Z5hQmFH2F7mChiqIoMt5-252" target="Z5hQmFH2F7mChiqIoMt5-176" edge="1">
                    <mxGeometry relative="1" as="geometry"/>
                </mxCell>
                <mxCell id="Z5hQmFH2F7mChiqIoMt5-176" value="2.1" style="rounded=0;whiteSpace=wrap;html=1;fontSize=9;" parent="WIyWlLk6GJQsqaUBKTNV-1" vertex="1">
                    <mxGeometry x="118.47483271375464" y="143" width="22.304832713754646" height="20" as="geometry"/>
                </mxCell>
                <mxCell id="Z5hQmFH2F7mChiqIoMt5-177" value="" style="edgeStyle=none;rounded=0;orthogonalLoop=1;jettySize=auto;html=1;fontSize=9;exitX=0.5;exitY=1;exitDx=0;exitDy=0;entryX=0.5;entryY=0;entryDx=0;entryDy=0;endArrow=none;endFill=0;" parent="WIyWlLk6GJQsqaUBKTNV-1" source="Z5hQmFH2F7mChiqIoMt5-176" target="Z5hQmFH2F7mChiqIoMt5-182" edge="1">
                    <mxGeometry relative="1" as="geometry"/>
                </mxCell>
                <mxCell id="Z5hQmFH2F7mChiqIoMt5-178" value="" style="edgeStyle=none;rounded=0;orthogonalLoop=1;jettySize=auto;html=1;fontSize=9;exitX=0.5;exitY=1;exitDx=0;exitDy=0;entryX=0.5;entryY=0;entryDx=0;entryDy=0;endArrow=none;endFill=0;" parent="WIyWlLk6GJQsqaUBKTNV-1" source="Z5hQmFH2F7mChiqIoMt5-176" target="Z5hQmFH2F7mChiqIoMt5-180" edge="1">
                    <mxGeometry relative="1" as="geometry">
                        <mxPoint x="107.32241635687733" y="103" as="sourcePoint"/>
                    </mxGeometry>
                </mxCell>
                <object label="" branch="0" id="Z5hQmFH2F7mChiqIoMt5-179">
                    <mxCell style="group;fontSize=9;" parent="WIyWlLk6GJQsqaUBKTNV-1" vertex="1" connectable="0">
                        <mxGeometry x="96.17" y="183" width="66.17100371747212" height="20" as="geometry"/>
                    </mxCell>
                </object>
                <mxCell id="Z5hQmFH2F7mChiqIoMt5-180" value="3.3" style="rounded=0;whiteSpace=wrap;html=1;fontSize=9;" parent="Z5hQmFH2F7mChiqIoMt5-179" vertex="1">
                    <mxGeometry width="22.304832713754646" height="20" as="geometry"/>
                </mxCell>
                <mxCell id="Z5hQmFH2F7mChiqIoMt5-181" value="3.4" style="rounded=0;whiteSpace=wrap;html=1;fontSize=9;" parent="Z5hQmFH2F7mChiqIoMt5-179" vertex="1">
                    <mxGeometry x="22.304832713754646" width="22.304832713754646" height="20" as="geometry"/>
                </mxCell>
                <mxCell id="Z5hQmFH2F7mChiqIoMt5-182" value="3.5" style="rounded=0;whiteSpace=wrap;html=1;fontSize=9;" parent="Z5hQmFH2F7mChiqIoMt5-179" vertex="1">
                    <mxGeometry x="43.86617100371747" width="22.304832713754646" height="20" as="geometry"/>
                </mxCell>
                <mxCell id="Z5hQmFH2F7mChiqIoMt5-244" value="" style="edgeStyle=none;rounded=0;orthogonalLoop=1;jettySize=auto;html=1;fontSize=9;entryX=0.5;entryY=0;entryDx=0;entryDy=0;endArrow=none;endFill=0;" parent="WIyWlLk6GJQsqaUBKTNV-1" source="Z5hQmFH2F7mChiqIoMt5-245" target="Z5hQmFH2F7mChiqIoMt5-250" edge="1">
                    <mxGeometry relative="1" as="geometry">
                        <mxPoint x="195.79724907063198" y="243" as="targetPoint"/>
                    </mxGeometry>
                </mxCell>
                <mxCell id="Z5hQmFH2F7mChiqIoMt5-255" value="" style="edgeStyle=none;rounded=0;orthogonalLoop=1;jettySize=auto;html=1;fontSize=9;exitX=0.5;exitY=1;exitDx=0;exitDy=0;endArrow=none;endFill=0;exitPerimeter=0;entryX=0.5;entryY=0;entryDx=0;entryDy=0;" parent="WIyWlLk6GJQsqaUBKTNV-1" source="Z5hQmFH2F7mChiqIoMt5-252" target="Z5hQmFH2F7mChiqIoMt5-245" edge="1">
                    <mxGeometry relative="1" as="geometry">
                        <mxPoint x="195.79724907063198" y="63" as="sourcePoint"/>
                    </mxGeometry>
                </mxCell>
                <mxCell id="Z5hQmFH2F7mChiqIoMt5-245" value="2.2" style="rounded=0;whiteSpace=wrap;html=1;fontSize=9;" parent="WIyWlLk6GJQsqaUBKTNV-1" vertex="1">
                    <mxGeometry x="184.64483271375465" y="143" width="22.304832713754646" height="20" as="geometry"/>
                </mxCell>
                <mxCell id="Z5hQmFH2F7mChiqIoMt5-246" value="" style="edgeStyle=none;rounded=0;orthogonalLoop=1;jettySize=auto;html=1;fontSize=9;exitX=0.5;exitY=1;exitDx=0;exitDy=0;entryX=0.5;entryY=0;entryDx=0;entryDy=0;endArrow=none;endFill=0;" parent="WIyWlLk6GJQsqaUBKTNV-1" source="Z5hQmFH2F7mChiqIoMt5-245" target="Z5hQmFH2F7mChiqIoMt5-251" edge="1">
                    <mxGeometry relative="1" as="geometry"/>
                </mxCell>
                <mxCell id="Z5hQmFH2F7mChiqIoMt5-247" value="" style="edgeStyle=none;rounded=0;orthogonalLoop=1;jettySize=auto;html=1;fontSize=9;entryX=0.5;entryY=0;entryDx=0;entryDy=0;endArrow=none;endFill=0;exitX=0.5;exitY=1;exitDx=0;exitDy=0;" parent="WIyWlLk6GJQsqaUBKTNV-1" source="Z5hQmFH2F7mChiqIoMt5-245" target="Z5hQmFH2F7mChiqIoMt5-249" edge="1">
                    <mxGeometry relative="1" as="geometry">
                        <mxPoint x="173" y="153" as="sourcePoint"/>
                    </mxGeometry>
                </mxCell>
                <object label="" branch="0" id="Z5hQmFH2F7mChiqIoMt5-248">
                    <mxCell style="group;fontSize=9;" parent="WIyWlLk6GJQsqaUBKTNV-1" vertex="1" connectable="0">
                        <mxGeometry x="162.34" y="183" width="66.17100371747212" height="20" as="geometry"/>
                    </mxCell>
                </object>
                <mxCell id="Z5hQmFH2F7mChiqIoMt5-249" value="3.6" style="rounded=0;whiteSpace=wrap;html=1;fontSize=9;" parent="Z5hQmFH2F7mChiqIoMt5-248" vertex="1">
                    <mxGeometry width="22.304832713754646" height="20" as="geometry"/>
                </mxCell>
                <mxCell id="Z5hQmFH2F7mChiqIoMt5-250" value="3.7" style="rounded=0;whiteSpace=wrap;html=1;fontSize=9;" parent="Z5hQmFH2F7mChiqIoMt5-248" vertex="1">
                    <mxGeometry x="22.304832713754646" width="22.304832713754646" height="20" as="geometry"/>
                </mxCell>
                <mxCell id="Z5hQmFH2F7mChiqIoMt5-251" value="3.8" style="rounded=0;whiteSpace=wrap;html=1;fontSize=9;" parent="Z5hQmFH2F7mChiqIoMt5-248" vertex="1">
                    <mxGeometry x="43.86617100371747" width="22.304832713754646" height="20" as="geometry"/>
                </mxCell>
                <mxCell id="Z5hQmFH2F7mChiqIoMt5-319" value="" style="edgeStyle=none;rounded=0;orthogonalLoop=1;jettySize=auto;html=1;fontSize=9;endArrow=none;endFill=0;entryX=0.5;entryY=1;entryDx=0;entryDy=0;exitX=0.5;exitY=0;exitDx=0;exitDy=0;startArrow=none;" parent="WIyWlLk6GJQsqaUBKTNV-1" source="Z5hQmFH2F7mChiqIoMt5-252" target="Z5hQmFH2F7mChiqIoMt5-317" edge="1">
                    <mxGeometry relative="1" as="geometry">
                        <mxPoint x="129.62724907063196" y="23" as="targetPoint"/>
                    </mxGeometry>
                </mxCell>
                <mxCell id="Z5hQmFH2F7mChiqIoMt5-252" value="1.0" style="rounded=0;whiteSpace=wrap;html=1;fontSize=9;" parent="WIyWlLk6GJQsqaUBKTNV-1" vertex="1">
                    <mxGeometry x="118.47483271375464" y="103" width="22.304832713754646" height="20" as="geometry"/>
                </mxCell>
                <mxCell id="Z5hQmFH2F7mChiqIoMt5-261" value="" style="edgeStyle=none;rounded=0;orthogonalLoop=1;jettySize=auto;html=1;fontSize=9;entryX=0.5;entryY=0;entryDx=0;entryDy=0;endArrow=none;endFill=0;" parent="WIyWlLk6GJQsqaUBKTNV-1" source="Z5hQmFH2F7mChiqIoMt5-263" target="Z5hQmFH2F7mChiqIoMt5-268" edge="1">
                    <mxGeometry relative="1" as="geometry">
                        <mxPoint x="263.457249070632" y="243" as="targetPoint"/>
                    </mxGeometry>
                </mxCell>
                <mxCell id="Z5hQmFH2F7mChiqIoMt5-262" value="" style="edgeStyle=none;rounded=0;orthogonalLoop=1;jettySize=auto;html=1;fontSize=9;exitX=0.5;exitY=1;exitDx=0;exitDy=0;endArrow=none;endFill=0;entryX=0.5;entryY=0;entryDx=0;entryDy=0;" parent="WIyWlLk6GJQsqaUBKTNV-1" source="Z5hQmFH2F7mChiqIoMt5-288" target="Z5hQmFH2F7mChiqIoMt5-263" edge="1">
                    <mxGeometry relative="1" as="geometry">
                        <mxPoint x="263.457249070632" y="63" as="sourcePoint"/>
                    </mxGeometry>
                </mxCell>
                <mxCell id="Z5hQmFH2F7mChiqIoMt5-263" value="2.3" style="rounded=0;whiteSpace=wrap;html=1;fontSize=9;" parent="WIyWlLk6GJQsqaUBKTNV-1" vertex="1">
                    <mxGeometry x="252.30483271375465" y="143" width="22.304832713754646" height="20" as="geometry"/>
                </mxCell>
                <mxCell id="Z5hQmFH2F7mChiqIoMt5-264" value="" style="edgeStyle=none;rounded=0;orthogonalLoop=1;jettySize=auto;html=1;fontSize=9;exitX=0.5;exitY=1;exitDx=0;exitDy=0;entryX=0.5;entryY=0;entryDx=0;entryDy=0;endArrow=none;endFill=0;" parent="WIyWlLk6GJQsqaUBKTNV-1" source="Z5hQmFH2F7mChiqIoMt5-263" target="Z5hQmFH2F7mChiqIoMt5-269" edge="1">
                    <mxGeometry relative="1" as="geometry"/>
                </mxCell>
                <mxCell id="Z5hQmFH2F7mChiqIoMt5-265" value="" style="edgeStyle=none;rounded=0;orthogonalLoop=1;jettySize=auto;html=1;fontSize=9;exitX=0.5;exitY=1;exitDx=0;exitDy=0;entryX=0.5;entryY=0;entryDx=0;entryDy=0;endArrow=none;endFill=0;" parent="WIyWlLk6GJQsqaUBKTNV-1" source="Z5hQmFH2F7mChiqIoMt5-263" target="Z5hQmFH2F7mChiqIoMt5-267" edge="1">
                    <mxGeometry relative="1" as="geometry">
                        <mxPoint x="241.15241635687732" y="103" as="sourcePoint"/>
                    </mxGeometry>
                </mxCell>
                <object label="" branch="0" id="Z5hQmFH2F7mChiqIoMt5-266">
                    <mxCell style="group;fontSize=9;" parent="WIyWlLk6GJQsqaUBKTNV-1" vertex="1" connectable="0">
                        <mxGeometry x="230" y="183" width="66.17100371747212" height="20" as="geometry"/>
                    </mxCell>
                </object>
                <mxCell id="Z5hQmFH2F7mChiqIoMt5-267" value="3.9" style="rounded=0;whiteSpace=wrap;html=1;fontSize=9;" parent="Z5hQmFH2F7mChiqIoMt5-266" vertex="1">
                    <mxGeometry width="22.304832713754646" height="20" as="geometry"/>
                </mxCell>
                <mxCell id="Z5hQmFH2F7mChiqIoMt5-268" value="" style="rounded=0;whiteSpace=wrap;html=1;fontSize=9;" parent="Z5hQmFH2F7mChiqIoMt5-266" vertex="1">
                    <mxGeometry x="22.304832713754646" width="22.304832713754646" height="20" as="geometry"/>
                </mxCell>
                <mxCell id="Z5hQmFH2F7mChiqIoMt5-269" value="" style="rounded=0;whiteSpace=wrap;html=1;fontSize=9;" parent="Z5hQmFH2F7mChiqIoMt5-266" vertex="1">
                    <mxGeometry x="43.86617100371747" width="22.304832713754646" height="20" as="geometry"/>
                </mxCell>
                <mxCell id="Z5hQmFH2F7mChiqIoMt5-270" value="" style="edgeStyle=none;rounded=0;orthogonalLoop=1;jettySize=auto;html=1;fontSize=9;entryX=0.5;entryY=0;entryDx=0;entryDy=0;endArrow=none;endFill=0;" parent="WIyWlLk6GJQsqaUBKTNV-1" source="Z5hQmFH2F7mChiqIoMt5-272" target="Z5hQmFH2F7mChiqIoMt5-277" edge="1">
                    <mxGeometry relative="1" as="geometry">
                        <mxPoint x="329.627249070632" y="243" as="targetPoint"/>
                    </mxGeometry>
                </mxCell>
                <mxCell id="Z5hQmFH2F7mChiqIoMt5-271" value="" style="edgeStyle=none;rounded=0;orthogonalLoop=1;jettySize=auto;html=1;fontSize=9;endArrow=none;endFill=0;" parent="WIyWlLk6GJQsqaUBKTNV-1" source="Z5hQmFH2F7mChiqIoMt5-288" target="Z5hQmFH2F7mChiqIoMt5-272" edge="1">
                    <mxGeometry relative="1" as="geometry"/>
                </mxCell>
                <mxCell id="Z5hQmFH2F7mChiqIoMt5-272" value="2.4" style="rounded=0;whiteSpace=wrap;html=1;fontSize=9;" parent="WIyWlLk6GJQsqaUBKTNV-1" vertex="1">
                    <mxGeometry x="318.4748327137546" y="143" width="22.304832713754646" height="20" as="geometry"/>
                </mxCell>
                <mxCell id="Z5hQmFH2F7mChiqIoMt5-273" value="" style="edgeStyle=none;rounded=0;orthogonalLoop=1;jettySize=auto;html=1;fontSize=9;entryX=0.5;entryY=0;entryDx=0;entryDy=0;endArrow=none;endFill=0;" parent="WIyWlLk6GJQsqaUBKTNV-1" target="Z5hQmFH2F7mChiqIoMt5-278" edge="1">
                    <mxGeometry relative="1" as="geometry">
                        <mxPoint x="330" y="163" as="sourcePoint"/>
                    </mxGeometry>
                </mxCell>
                <mxCell id="Z5hQmFH2F7mChiqIoMt5-274" value="" style="edgeStyle=none;rounded=0;orthogonalLoop=1;jettySize=auto;html=1;fontSize=9;exitX=0.5;exitY=1;exitDx=0;exitDy=0;entryX=0.5;entryY=0;entryDx=0;entryDy=0;endArrow=none;endFill=0;" parent="WIyWlLk6GJQsqaUBKTNV-1" source="Z5hQmFH2F7mChiqIoMt5-272" target="Z5hQmFH2F7mChiqIoMt5-276" edge="1">
                    <mxGeometry relative="1" as="geometry">
                        <mxPoint x="307.32241635687734" y="103" as="sourcePoint"/>
                    </mxGeometry>
                </mxCell>
                <object label="" branch="0" id="Z5hQmFH2F7mChiqIoMt5-275">
                    <mxCell style="group;fontSize=9;" parent="WIyWlLk6GJQsqaUBKTNV-1" vertex="1" connectable="0">
                        <mxGeometry x="296.17" y="183" width="66.17100371747212" height="20" as="geometry"/>
                    </mxCell>
                </object>
                <mxCell id="Z5hQmFH2F7mChiqIoMt5-276" value="3.12" style="rounded=0;whiteSpace=wrap;html=1;fontSize=9;" parent="Z5hQmFH2F7mChiqIoMt5-275" vertex="1">
                    <mxGeometry width="22.304832713754646" height="20" as="geometry"/>
                </mxCell>
                <mxCell id="Z5hQmFH2F7mChiqIoMt5-277" value="" style="rounded=0;whiteSpace=wrap;html=1;fontSize=9;" parent="Z5hQmFH2F7mChiqIoMt5-275" vertex="1">
                    <mxGeometry x="22.304832713754646" width="22.304832713754646" height="20" as="geometry"/>
                </mxCell>
                <mxCell id="Z5hQmFH2F7mChiqIoMt5-278" value="" style="rounded=0;whiteSpace=wrap;html=1;fontSize=9;" parent="Z5hQmFH2F7mChiqIoMt5-275" vertex="1">
                    <mxGeometry x="43.86617100371747" width="22.304832713754646" height="20" as="geometry"/>
                </mxCell>
                <mxCell id="Z5hQmFH2F7mChiqIoMt5-279" value="" style="edgeStyle=none;rounded=0;orthogonalLoop=1;jettySize=auto;html=1;fontSize=9;entryX=0.5;entryY=0;entryDx=0;entryDy=0;endArrow=none;endFill=0;" parent="WIyWlLk6GJQsqaUBKTNV-1" source="Z5hQmFH2F7mChiqIoMt5-281" target="Z5hQmFH2F7mChiqIoMt5-286" edge="1">
                    <mxGeometry relative="1" as="geometry">
                        <mxPoint x="395.797249070632" y="243" as="targetPoint"/>
                    </mxGeometry>
                </mxCell>
                <mxCell id="Z5hQmFH2F7mChiqIoMt5-280" value="" style="edgeStyle=none;rounded=0;orthogonalLoop=1;jettySize=auto;html=1;fontSize=9;exitX=0.5;exitY=1;exitDx=0;exitDy=0;endArrow=none;endFill=0;entryX=0.5;entryY=0;entryDx=0;entryDy=0;" parent="WIyWlLk6GJQsqaUBKTNV-1" source="Z5hQmFH2F7mChiqIoMt5-288" target="Z5hQmFH2F7mChiqIoMt5-281" edge="1">
                    <mxGeometry relative="1" as="geometry">
                        <mxPoint x="395.797249070632" y="63" as="sourcePoint"/>
                    </mxGeometry>
                </mxCell>
                <mxCell id="Z5hQmFH2F7mChiqIoMt5-281" value="2.5" style="rounded=0;whiteSpace=wrap;html=1;fontSize=9;" parent="WIyWlLk6GJQsqaUBKTNV-1" vertex="1">
                    <mxGeometry x="384.6448327137547" y="143" width="22.304832713754646" height="20" as="geometry"/>
                </mxCell>
                <mxCell id="Z5hQmFH2F7mChiqIoMt5-282" value="" style="edgeStyle=none;rounded=0;orthogonalLoop=1;jettySize=auto;html=1;fontSize=9;entryX=0.5;entryY=0;entryDx=0;entryDy=0;endArrow=none;endFill=0;" parent="WIyWlLk6GJQsqaUBKTNV-1" target="Z5hQmFH2F7mChiqIoMt5-287" edge="1">
                    <mxGeometry relative="1" as="geometry">
                        <mxPoint x="396" y="163" as="sourcePoint"/>
                    </mxGeometry>
                </mxCell>
                <mxCell id="Z5hQmFH2F7mChiqIoMt5-283" value="" style="edgeStyle=none;rounded=0;orthogonalLoop=1;jettySize=auto;html=1;fontSize=9;exitX=0.5;exitY=1;exitDx=0;exitDy=0;entryX=0.5;entryY=0;entryDx=0;entryDy=0;endArrow=none;endFill=0;" parent="WIyWlLk6GJQsqaUBKTNV-1" source="Z5hQmFH2F7mChiqIoMt5-281" target="Z5hQmFH2F7mChiqIoMt5-285" edge="1">
                    <mxGeometry relative="1" as="geometry">
                        <mxPoint x="373.49241635687736" y="103" as="sourcePoint"/>
                    </mxGeometry>
                </mxCell>
                <object label="" branch="0" id="Z5hQmFH2F7mChiqIoMt5-284">
                    <mxCell style="group;fontSize=9;" parent="WIyWlLk6GJQsqaUBKTNV-1" vertex="1" connectable="0">
                        <mxGeometry x="362.34000000000003" y="183" width="66.17100371747212" height="20" as="geometry"/>
                    </mxCell>
                </object>
                <mxCell id="Z5hQmFH2F7mChiqIoMt5-285" value="3.15" style="rounded=0;whiteSpace=wrap;html=1;fontSize=9;" parent="Z5hQmFH2F7mChiqIoMt5-284" vertex="1">
                    <mxGeometry width="22.304832713754646" height="20" as="geometry"/>
                </mxCell>
                <mxCell id="Z5hQmFH2F7mChiqIoMt5-286" value="" style="rounded=0;whiteSpace=wrap;html=1;fontSize=9;" parent="Z5hQmFH2F7mChiqIoMt5-284" vertex="1">
                    <mxGeometry x="22.304832713754646" width="22.304832713754646" height="20" as="geometry"/>
                </mxCell>
                <mxCell id="Z5hQmFH2F7mChiqIoMt5-287" value="" style="rounded=0;whiteSpace=wrap;html=1;fontSize=9;" parent="Z5hQmFH2F7mChiqIoMt5-284" vertex="1">
                    <mxGeometry x="43.86617100371747" width="22.304832713754646" height="20" as="geometry"/>
                </mxCell>
                <mxCell id="Z5hQmFH2F7mChiqIoMt5-318" value="" style="edgeStyle=none;rounded=0;orthogonalLoop=1;jettySize=auto;html=1;fontSize=9;endArrow=none;endFill=0;" parent="WIyWlLk6GJQsqaUBKTNV-1" source="Z5hQmFH2F7mChiqIoMt5-288" target="Z5hQmFH2F7mChiqIoMt5-317" edge="1">
                    <mxGeometry relative="1" as="geometry"/>
                </mxCell>
                <mxCell id="Z5hQmFH2F7mChiqIoMt5-288" value="1.1" style="rounded=0;whiteSpace=wrap;html=1;fontSize=9;" parent="WIyWlLk6GJQsqaUBKTNV-1" vertex="1">
                    <mxGeometry x="318.4748327137546" y="103" width="22.304832713754646" height="20" as="geometry"/>
                </mxCell>
                <mxCell id="Z5hQmFH2F7mChiqIoMt5-289" value="" style="edgeStyle=none;rounded=0;orthogonalLoop=1;jettySize=auto;html=1;fontSize=9;entryX=0.5;entryY=0;entryDx=0;entryDy=0;endArrow=none;endFill=0;" parent="WIyWlLk6GJQsqaUBKTNV-1" source="Z5hQmFH2F7mChiqIoMt5-291" target="Z5hQmFH2F7mChiqIoMt5-296" edge="1">
                    <mxGeometry relative="1" as="geometry">
                        <mxPoint x="463.457249070632" y="243" as="targetPoint"/>
                    </mxGeometry>
                </mxCell>
                <mxCell id="Z5hQmFH2F7mChiqIoMt5-290" value="" style="edgeStyle=none;rounded=0;orthogonalLoop=1;jettySize=auto;html=1;fontSize=9;exitX=0.5;exitY=1;exitDx=0;exitDy=0;endArrow=none;endFill=0;entryX=0.5;entryY=0;entryDx=0;entryDy=0;" parent="WIyWlLk6GJQsqaUBKTNV-1" source="Z5hQmFH2F7mChiqIoMt5-316" target="Z5hQmFH2F7mChiqIoMt5-291" edge="1">
                    <mxGeometry relative="1" as="geometry">
                        <mxPoint x="463.457249070632" y="63" as="sourcePoint"/>
                    </mxGeometry>
                </mxCell>
                <mxCell id="Z5hQmFH2F7mChiqIoMt5-291" value="2.6" style="rounded=0;whiteSpace=wrap;html=1;fontSize=9;" parent="WIyWlLk6GJQsqaUBKTNV-1" vertex="1">
                    <mxGeometry x="452.30483271375465" y="143" width="22.304832713754646" height="20" as="geometry"/>
                </mxCell>
                <mxCell id="Z5hQmFH2F7mChiqIoMt5-292" value="" style="edgeStyle=none;rounded=0;orthogonalLoop=1;jettySize=auto;html=1;fontSize=9;exitX=0.5;exitY=1;exitDx=0;exitDy=0;entryX=0.5;entryY=0;entryDx=0;entryDy=0;endArrow=none;endFill=0;" parent="WIyWlLk6GJQsqaUBKTNV-1" source="Z5hQmFH2F7mChiqIoMt5-291" target="Z5hQmFH2F7mChiqIoMt5-297" edge="1">
                    <mxGeometry relative="1" as="geometry"/>
                </mxCell>
                <mxCell id="Z5hQmFH2F7mChiqIoMt5-293" value="" style="edgeStyle=none;rounded=0;orthogonalLoop=1;jettySize=auto;html=1;fontSize=9;exitX=0.5;exitY=1;exitDx=0;exitDy=0;entryX=0.5;entryY=0;entryDx=0;entryDy=0;endArrow=none;endFill=0;" parent="WIyWlLk6GJQsqaUBKTNV-1" source="Z5hQmFH2F7mChiqIoMt5-291" target="Z5hQmFH2F7mChiqIoMt5-295" edge="1">
                    <mxGeometry relative="1" as="geometry">
                        <mxPoint x="441.1524163568773" y="103" as="sourcePoint"/>
                    </mxGeometry>
                </mxCell>
                <object label="" branch="0" id="Z5hQmFH2F7mChiqIoMt5-294">
                    <mxCell style="group;fontSize=9;" parent="WIyWlLk6GJQsqaUBKTNV-1" vertex="1" connectable="0">
                        <mxGeometry x="430" y="183" width="66.17100371747212" height="20" as="geometry"/>
                    </mxCell>
                </object>
                <mxCell id="Z5hQmFH2F7mChiqIoMt5-295" value="3.18" style="rounded=0;whiteSpace=wrap;html=1;fontSize=9;" parent="Z5hQmFH2F7mChiqIoMt5-294" vertex="1">
                    <mxGeometry width="22.304832713754646" height="20" as="geometry"/>
                </mxCell>
                <mxCell id="Z5hQmFH2F7mChiqIoMt5-296" value="" style="rounded=0;whiteSpace=wrap;html=1;fontSize=9;" parent="Z5hQmFH2F7mChiqIoMt5-294" vertex="1">
                    <mxGeometry x="22.304832713754646" width="22.304832713754646" height="20" as="geometry"/>
                </mxCell>
                <mxCell id="Z5hQmFH2F7mChiqIoMt5-297" value="" style="rounded=0;whiteSpace=wrap;html=1;fontSize=9;" parent="Z5hQmFH2F7mChiqIoMt5-294" vertex="1">
                    <mxGeometry x="43.86617100371747" width="22.304832713754646" height="20" as="geometry"/>
                </mxCell>
                <mxCell id="Z5hQmFH2F7mChiqIoMt5-298" value="" style="edgeStyle=none;rounded=0;orthogonalLoop=1;jettySize=auto;html=1;fontSize=9;entryX=0.5;entryY=0;entryDx=0;entryDy=0;endArrow=none;endFill=0;" parent="WIyWlLk6GJQsqaUBKTNV-1" source="Z5hQmFH2F7mChiqIoMt5-300" target="Z5hQmFH2F7mChiqIoMt5-305" edge="1">
                    <mxGeometry relative="1" as="geometry">
                        <mxPoint x="529.6272490706319" y="243" as="targetPoint"/>
                    </mxGeometry>
                </mxCell>
                <mxCell id="Z5hQmFH2F7mChiqIoMt5-299" value="" style="edgeStyle=none;rounded=0;orthogonalLoop=1;jettySize=auto;html=1;fontSize=9;endArrow=none;endFill=0;" parent="WIyWlLk6GJQsqaUBKTNV-1" source="Z5hQmFH2F7mChiqIoMt5-316" target="Z5hQmFH2F7mChiqIoMt5-300" edge="1">
                    <mxGeometry relative="1" as="geometry"/>
                </mxCell>
                <mxCell id="Z5hQmFH2F7mChiqIoMt5-300" value="2.7" style="rounded=0;whiteSpace=wrap;html=1;fontSize=9;" parent="WIyWlLk6GJQsqaUBKTNV-1" vertex="1">
                    <mxGeometry x="518.4748327137546" y="143" width="22.304832713754646" height="20" as="geometry"/>
                </mxCell>
                <mxCell id="Z5hQmFH2F7mChiqIoMt5-301" value="" style="edgeStyle=none;rounded=0;orthogonalLoop=1;jettySize=auto;html=1;fontSize=9;exitX=0.5;exitY=1;exitDx=0;exitDy=0;entryX=0.5;entryY=0;entryDx=0;entryDy=0;endArrow=none;endFill=0;" parent="WIyWlLk6GJQsqaUBKTNV-1" source="Z5hQmFH2F7mChiqIoMt5-300" target="Z5hQmFH2F7mChiqIoMt5-306" edge="1">
                    <mxGeometry relative="1" as="geometry"/>
                </mxCell>
                <mxCell id="Z5hQmFH2F7mChiqIoMt5-302" value="" style="edgeStyle=none;rounded=0;orthogonalLoop=1;jettySize=auto;html=1;fontSize=9;exitX=0.5;exitY=1;exitDx=0;exitDy=0;entryX=0.5;entryY=0;entryDx=0;entryDy=0;endArrow=none;endFill=0;" parent="WIyWlLk6GJQsqaUBKTNV-1" source="Z5hQmFH2F7mChiqIoMt5-300" target="Z5hQmFH2F7mChiqIoMt5-304" edge="1">
                    <mxGeometry relative="1" as="geometry">
                        <mxPoint x="507.32241635687734" y="103" as="sourcePoint"/>
                    </mxGeometry>
                </mxCell>
                <object label="" branch="0" id="Z5hQmFH2F7mChiqIoMt5-303">
                    <mxCell style="group;fontSize=9;" parent="WIyWlLk6GJQsqaUBKTNV-1" vertex="1" connectable="0">
                        <mxGeometry x="496.17" y="183" width="66.17100371747212" height="20" as="geometry"/>
                    </mxCell>
                </object>
                <mxCell id="Z5hQmFH2F7mChiqIoMt5-304" value="3.21" style="rounded=0;whiteSpace=wrap;html=1;fontSize=9;" parent="Z5hQmFH2F7mChiqIoMt5-303" vertex="1">
                    <mxGeometry width="22.304832713754646" height="20" as="geometry"/>
                </mxCell>
                <mxCell id="Z5hQmFH2F7mChiqIoMt5-305" value="" style="rounded=0;whiteSpace=wrap;html=1;fontSize=9;" parent="Z5hQmFH2F7mChiqIoMt5-303" vertex="1">
                    <mxGeometry x="22.304832713754646" width="22.304832713754646" height="20" as="geometry"/>
                </mxCell>
                <mxCell id="Z5hQmFH2F7mChiqIoMt5-306" value="" style="rounded=0;whiteSpace=wrap;html=1;fontSize=9;" parent="Z5hQmFH2F7mChiqIoMt5-303" vertex="1">
                    <mxGeometry x="43.86617100371747" width="22.304832713754646" height="20" as="geometry"/>
                </mxCell>
                <mxCell id="Z5hQmFH2F7mChiqIoMt5-307" value="" style="edgeStyle=none;rounded=0;orthogonalLoop=1;jettySize=auto;html=1;fontSize=9;entryX=0.5;entryY=0;entryDx=0;entryDy=0;endArrow=none;endFill=0;" parent="WIyWlLk6GJQsqaUBKTNV-1" source="Z5hQmFH2F7mChiqIoMt5-309" target="Z5hQmFH2F7mChiqIoMt5-314" edge="1">
                    <mxGeometry relative="1" as="geometry">
                        <mxPoint x="595.797249070632" y="243" as="targetPoint"/>
                    </mxGeometry>
                </mxCell>
                <mxCell id="Z5hQmFH2F7mChiqIoMt5-308" value="" style="edgeStyle=none;rounded=0;orthogonalLoop=1;jettySize=auto;html=1;fontSize=9;exitX=0.5;exitY=1;exitDx=0;exitDy=0;endArrow=none;endFill=0;entryX=0.5;entryY=0;entryDx=0;entryDy=0;" parent="WIyWlLk6GJQsqaUBKTNV-1" source="Z5hQmFH2F7mChiqIoMt5-316" target="Z5hQmFH2F7mChiqIoMt5-309" edge="1">
                    <mxGeometry relative="1" as="geometry">
                        <mxPoint x="595.797249070632" y="63" as="sourcePoint"/>
                    </mxGeometry>
                </mxCell>
                <mxCell id="Z5hQmFH2F7mChiqIoMt5-309" value="2.8" style="rounded=0;whiteSpace=wrap;html=1;fontSize=9;" parent="WIyWlLk6GJQsqaUBKTNV-1" vertex="1">
                    <mxGeometry x="584.6448327137547" y="143" width="22.304832713754646" height="20" as="geometry"/>
                </mxCell>
                <mxCell id="Z5hQmFH2F7mChiqIoMt5-310" value="" style="edgeStyle=none;rounded=0;orthogonalLoop=1;jettySize=auto;html=1;fontSize=9;exitX=0.5;exitY=1;exitDx=0;exitDy=0;entryX=0.5;entryY=0;entryDx=0;entryDy=0;endArrow=none;endFill=0;" parent="WIyWlLk6GJQsqaUBKTNV-1" source="Z5hQmFH2F7mChiqIoMt5-309" target="Z5hQmFH2F7mChiqIoMt5-315" edge="1">
                    <mxGeometry relative="1" as="geometry"/>
                </mxCell>
                <mxCell id="Z5hQmFH2F7mChiqIoMt5-311" value="" style="edgeStyle=none;rounded=0;orthogonalLoop=1;jettySize=auto;html=1;fontSize=9;exitX=0.5;exitY=1;exitDx=0;exitDy=0;entryX=0.5;entryY=0;entryDx=0;entryDy=0;endArrow=none;endFill=0;" parent="WIyWlLk6GJQsqaUBKTNV-1" source="Z5hQmFH2F7mChiqIoMt5-309" target="Z5hQmFH2F7mChiqIoMt5-313" edge="1">
                    <mxGeometry relative="1" as="geometry">
                        <mxPoint x="573.4924163568774" y="103" as="sourcePoint"/>
                    </mxGeometry>
                </mxCell>
                <object label="" branch="0" id="Z5hQmFH2F7mChiqIoMt5-312">
                    <mxCell style="group;fontSize=9;" parent="WIyWlLk6GJQsqaUBKTNV-1" vertex="1" connectable="0">
                        <mxGeometry x="562.34" y="183" width="66.17100371747212" height="20" as="geometry"/>
                    </mxCell>
                </object>
                <mxCell id="Z5hQmFH2F7mChiqIoMt5-313" value="3.24" style="rounded=0;whiteSpace=wrap;html=1;fontSize=9;" parent="Z5hQmFH2F7mChiqIoMt5-312" vertex="1">
                    <mxGeometry width="22.304832713754646" height="20" as="geometry"/>
                </mxCell>
                <mxCell id="Z5hQmFH2F7mChiqIoMt5-314" value="" style="rounded=0;whiteSpace=wrap;html=1;fontSize=9;" parent="Z5hQmFH2F7mChiqIoMt5-312" vertex="1">
                    <mxGeometry x="22.304832713754646" width="22.304832713754646" height="20" as="geometry"/>
                </mxCell>
                <mxCell id="Z5hQmFH2F7mChiqIoMt5-315" value="" style="rounded=0;whiteSpace=wrap;html=1;fontSize=9;" parent="Z5hQmFH2F7mChiqIoMt5-312" vertex="1">
                    <mxGeometry x="43.86617100371747" width="22.304832713754646" height="20" as="geometry"/>
                </mxCell>
                <mxCell id="Z5hQmFH2F7mChiqIoMt5-320" value="" style="edgeStyle=none;rounded=0;orthogonalLoop=1;jettySize=auto;html=1;fontSize=9;endArrow=none;endFill=0;entryX=0.5;entryY=1;entryDx=0;entryDy=0;exitX=0.5;exitY=0;exitDx=0;exitDy=0;" parent="WIyWlLk6GJQsqaUBKTNV-1" source="Z5hQmFH2F7mChiqIoMt5-316" target="Z5hQmFH2F7mChiqIoMt5-317" edge="1">
                    <mxGeometry relative="1" as="geometry">
                        <mxPoint x="529.6272490706319" y="23" as="targetPoint"/>
                    </mxGeometry>
                </mxCell>
                <mxCell id="Z5hQmFH2F7mChiqIoMt5-316" value="1.2" style="rounded=0;whiteSpace=wrap;html=1;fontSize=9;" parent="WIyWlLk6GJQsqaUBKTNV-1" vertex="1">
                    <mxGeometry x="518.4748327137546" y="103" width="22.304832713754646" height="20" as="geometry"/>
                </mxCell>
                <mxCell id="Z5hQmFH2F7mChiqIoMt5-317" value="0" style="rounded=0;whiteSpace=wrap;html=1;fontSize=9;" parent="WIyWlLk6GJQsqaUBKTNV-1" vertex="1">
                    <mxGeometry x="318.4748327137546" y="53" width="22.304832713754646" height="20" as="geometry"/>
                </mxCell>
                <mxCell id="nwHU5ip1WEYhQN9irnRJ-74" value="&lt;div align=&quot;left&quot;&gt;&lt;b&gt;Tree iteration&lt;/b&gt;&lt;/div&gt;&lt;div align=&quot;left&quot;&gt;- Pruning branches 1.1...2 after 1.0 was played&lt;br&gt;&lt;/div&gt;&lt;div align=&quot;left&quot;&gt;- Leafs 3.0...3.8 are used as source for new level&amp;nbsp;&lt;/div&gt;&lt;div align=&quot;left&quot;&gt;- in place recalculation&lt;/div&gt;" style="rounded=0;whiteSpace=wrap;html=1;fontSize=9;" parent="WIyWlLk6GJQsqaUBKTNV-1" vertex="1">
                    <mxGeometry x="30" y="233" width="230" height="50" as="geometry"/>
                </mxCell>
                <object label="" branch="0" id="nwHU5ip1WEYhQN9irnRJ-80">
                    <mxCell style="group;fontSize=9;fontStyle=1;" parent="WIyWlLk6GJQsqaUBKTNV-1" vertex="1" connectable="0">
                        <mxGeometry x="30" y="364" width="66.17100371747212" height="20" as="geometry"/>
                    </mxCell>
                </object>
                <mxCell id="nwHU5ip1WEYhQN9irnRJ-81" value="3.0" style="rounded=0;whiteSpace=wrap;html=1;fontSize=9;fontStyle=1;" parent="nwHU5ip1WEYhQN9irnRJ-80" vertex="1">
                    <mxGeometry width="22.304832713754646" height="20" as="geometry"/>
                </mxCell>
                <mxCell id="nwHU5ip1WEYhQN9irnRJ-82" value="3.1&lt;span style=&quot;white-space: pre; font-size: 9px;&quot;&gt;&lt;/span&gt;" style="rounded=0;whiteSpace=wrap;html=1;fontSize=9;fontStyle=1;" parent="nwHU5ip1WEYhQN9irnRJ-80" vertex="1">
                    <mxGeometry x="22.304832713754646" width="22.304832713754646" height="20" as="geometry"/>
                </mxCell>
                <mxCell id="nwHU5ip1WEYhQN9irnRJ-83" value="3.2" style="rounded=0;whiteSpace=wrap;html=1;fontSize=9;fontStyle=1;" parent="nwHU5ip1WEYhQN9irnRJ-80" vertex="1">
                    <mxGeometry x="43.86617100371747" width="22.304832713754646" height="20" as="geometry"/>
                </mxCell>
                <object label="" branch="0" id="nwHU5ip1WEYhQN9irnRJ-89">
                    <mxCell style="group;fontSize=9;fontStyle=1;" parent="WIyWlLk6GJQsqaUBKTNV-1" vertex="1" connectable="0">
                        <mxGeometry x="96.17" y="364" width="66.17100371747212" height="20" as="geometry"/>
                    </mxCell>
                </object>
                <mxCell id="nwHU5ip1WEYhQN9irnRJ-90" value="3.3" style="rounded=0;whiteSpace=wrap;html=1;fontSize=9;fontStyle=1;" parent="nwHU5ip1WEYhQN9irnRJ-89" vertex="1">
                    <mxGeometry width="22.304832713754646" height="20" as="geometry"/>
                </mxCell>
                <mxCell id="nwHU5ip1WEYhQN9irnRJ-91" value="3.4" style="rounded=0;whiteSpace=wrap;html=1;fontSize=9;fontStyle=1;" parent="nwHU5ip1WEYhQN9irnRJ-89" vertex="1">
                    <mxGeometry x="22.304832713754646" width="22.304832713754646" height="20" as="geometry"/>
                </mxCell>
                <mxCell id="nwHU5ip1WEYhQN9irnRJ-92" value="3.5" style="rounded=0;whiteSpace=wrap;html=1;fontSize=9;fontStyle=1;" parent="nwHU5ip1WEYhQN9irnRJ-89" vertex="1">
                    <mxGeometry x="43.86617100371747" width="22.304832713754646" height="20" as="geometry"/>
                </mxCell>
                <object label="" branch="0" id="nwHU5ip1WEYhQN9irnRJ-98">
                    <mxCell style="group;fontSize=9;fontStyle=1;" parent="WIyWlLk6GJQsqaUBKTNV-1" vertex="1" connectable="0">
                        <mxGeometry x="162.34" y="364" width="66.17100371747212" height="20" as="geometry"/>
                    </mxCell>
                </object>
                <mxCell id="nwHU5ip1WEYhQN9irnRJ-99" value="3.6" style="rounded=0;whiteSpace=wrap;html=1;fontSize=9;fontStyle=1;" parent="nwHU5ip1WEYhQN9irnRJ-98" vertex="1">
                    <mxGeometry width="22.304832713754646" height="20" as="geometry"/>
                </mxCell>
                <mxCell id="nwHU5ip1WEYhQN9irnRJ-100" value="3.7" style="rounded=0;whiteSpace=wrap;html=1;fontSize=9;fontStyle=1;" parent="nwHU5ip1WEYhQN9irnRJ-98" vertex="1">
                    <mxGeometry x="22.304832713754646" width="22.304832713754646" height="20" as="geometry"/>
                </mxCell>
                <mxCell id="nwHU5ip1WEYhQN9irnRJ-101" value="3.8" style="rounded=0;whiteSpace=wrap;html=1;fontSize=9;fontStyle=1;" parent="nwHU5ip1WEYhQN9irnRJ-98" vertex="1">
                    <mxGeometry x="43.86617100371747" width="22.304832713754646" height="20" as="geometry"/>
                </mxCell>
                <mxCell id="nwHU5ip1WEYhQN9irnRJ-102" value="" style="edgeStyle=none;rounded=0;orthogonalLoop=1;jettySize=auto;html=1;fontSize=9;entryX=0.5;entryY=0;entryDx=0;entryDy=0;endArrow=none;endFill=0;" parent="WIyWlLk6GJQsqaUBKTNV-1" source="nwHU5ip1WEYhQN9irnRJ-104" target="nwHU5ip1WEYhQN9irnRJ-109" edge="1">
                    <mxGeometry relative="1" as="geometry">
                        <mxPoint x="263.457249070632" y="424" as="targetPoint"/>
                    </mxGeometry>
                </mxCell>
                <mxCell id="nwHU5ip1WEYhQN9irnRJ-104" value="3.0" style="rounded=0;whiteSpace=wrap;html=1;fontSize=9;" parent="WIyWlLk6GJQsqaUBKTNV-1" vertex="1">
                    <mxGeometry x="252.30483271375465" y="324" width="22.304832713754646" height="20" as="geometry"/>
                </mxCell>
                <mxCell id="nwHU5ip1WEYhQN9irnRJ-105" value="" style="edgeStyle=none;rounded=0;orthogonalLoop=1;jettySize=auto;html=1;fontSize=9;exitX=0.5;exitY=1;exitDx=0;exitDy=0;entryX=0.5;entryY=0;entryDx=0;entryDy=0;endArrow=none;endFill=0;" parent="WIyWlLk6GJQsqaUBKTNV-1" source="nwHU5ip1WEYhQN9irnRJ-104" target="nwHU5ip1WEYhQN9irnRJ-110" edge="1">
                    <mxGeometry relative="1" as="geometry"/>
                </mxCell>
                <mxCell id="nwHU5ip1WEYhQN9irnRJ-106" value="" style="edgeStyle=none;rounded=0;orthogonalLoop=1;jettySize=auto;html=1;fontSize=9;exitX=0.5;exitY=1;exitDx=0;exitDy=0;entryX=0.5;entryY=0;entryDx=0;entryDy=0;endArrow=none;endFill=0;" parent="WIyWlLk6GJQsqaUBKTNV-1" source="nwHU5ip1WEYhQN9irnRJ-104" target="nwHU5ip1WEYhQN9irnRJ-108" edge="1">
                    <mxGeometry relative="1" as="geometry">
                        <mxPoint x="241.15241635687732" y="284" as="sourcePoint"/>
                    </mxGeometry>
                </mxCell>
                <object label="" branch="0" id="nwHU5ip1WEYhQN9irnRJ-107">
                    <mxCell style="group;fontSize=9;" parent="WIyWlLk6GJQsqaUBKTNV-1" vertex="1" connectable="0">
                        <mxGeometry x="230" y="364" width="66.17100371747212" height="20" as="geometry"/>
                    </mxCell>
                </object>
                <mxCell id="nwHU5ip1WEYhQN9irnRJ-108" value="4.0" style="rounded=0;whiteSpace=wrap;html=1;fontSize=9;" parent="nwHU5ip1WEYhQN9irnRJ-107" vertex="1">
                    <mxGeometry width="22.304832713754646" height="20" as="geometry"/>
                </mxCell>
                <mxCell id="nwHU5ip1WEYhQN9irnRJ-109" value="" style="rounded=0;whiteSpace=wrap;html=1;fontSize=9;" parent="nwHU5ip1WEYhQN9irnRJ-107" vertex="1">
                    <mxGeometry x="22.304832713754646" width="22.304832713754646" height="20" as="geometry"/>
                </mxCell>
                <mxCell id="nwHU5ip1WEYhQN9irnRJ-110" value="" style="rounded=0;whiteSpace=wrap;html=1;fontSize=9;" parent="nwHU5ip1WEYhQN9irnRJ-107" vertex="1">
                    <mxGeometry x="43.86617100371747" width="22.304832713754646" height="20" as="geometry"/>
                </mxCell>
                <mxCell id="nwHU5ip1WEYhQN9irnRJ-111" value="" style="edgeStyle=none;rounded=0;orthogonalLoop=1;jettySize=auto;html=1;fontSize=9;entryX=0.5;entryY=0;entryDx=0;entryDy=0;endArrow=none;endFill=0;" parent="WIyWlLk6GJQsqaUBKTNV-1" source="nwHU5ip1WEYhQN9irnRJ-113" target="nwHU5ip1WEYhQN9irnRJ-118" edge="1">
                    <mxGeometry relative="1" as="geometry">
                        <mxPoint x="329.627249070632" y="424" as="targetPoint"/>
                    </mxGeometry>
                </mxCell>
                <mxCell id="nwHU5ip1WEYhQN9irnRJ-113" value="3.1" style="rounded=0;whiteSpace=wrap;html=1;fontSize=9;" parent="WIyWlLk6GJQsqaUBKTNV-1" vertex="1">
                    <mxGeometry x="318.4748327137546" y="324" width="22.304832713754646" height="20" as="geometry"/>
                </mxCell>
                <mxCell id="nwHU5ip1WEYhQN9irnRJ-114" value="" style="edgeStyle=none;rounded=0;orthogonalLoop=1;jettySize=auto;html=1;fontSize=9;entryX=0.5;entryY=0;entryDx=0;entryDy=0;endArrow=none;endFill=0;" parent="WIyWlLk6GJQsqaUBKTNV-1" target="nwHU5ip1WEYhQN9irnRJ-119" edge="1">
                    <mxGeometry relative="1" as="geometry">
                        <mxPoint x="330" y="344" as="sourcePoint"/>
                    </mxGeometry>
                </mxCell>
                <mxCell id="nwHU5ip1WEYhQN9irnRJ-115" value="" style="edgeStyle=none;rounded=0;orthogonalLoop=1;jettySize=auto;html=1;fontSize=9;exitX=0.5;exitY=1;exitDx=0;exitDy=0;entryX=0.5;entryY=0;entryDx=0;entryDy=0;endArrow=none;endFill=0;" parent="WIyWlLk6GJQsqaUBKTNV-1" source="nwHU5ip1WEYhQN9irnRJ-113" target="nwHU5ip1WEYhQN9irnRJ-117" edge="1">
                    <mxGeometry relative="1" as="geometry">
                        <mxPoint x="307.32241635687734" y="284" as="sourcePoint"/>
                    </mxGeometry>
                </mxCell>
                <object label="" branch="0" id="nwHU5ip1WEYhQN9irnRJ-116">
                    <mxCell style="group;fontSize=9;" parent="WIyWlLk6GJQsqaUBKTNV-1" vertex="1" connectable="0">
                        <mxGeometry x="296.17" y="364" width="66.17100371747212" height="20" as="geometry"/>
                    </mxCell>
                </object>
                <mxCell id="nwHU5ip1WEYhQN9irnRJ-117" value="4.3" style="rounded=0;whiteSpace=wrap;html=1;fontSize=9;" parent="nwHU5ip1WEYhQN9irnRJ-116" vertex="1">
                    <mxGeometry width="22.304832713754646" height="20" as="geometry"/>
                </mxCell>
                <mxCell id="nwHU5ip1WEYhQN9irnRJ-118" value="" style="rounded=0;whiteSpace=wrap;html=1;fontSize=9;" parent="nwHU5ip1WEYhQN9irnRJ-116" vertex="1">
                    <mxGeometry x="22.304832713754646" width="22.304832713754646" height="20" as="geometry"/>
                </mxCell>
                <mxCell id="nwHU5ip1WEYhQN9irnRJ-119" value="" style="rounded=0;whiteSpace=wrap;html=1;fontSize=9;" parent="nwHU5ip1WEYhQN9irnRJ-116" vertex="1">
                    <mxGeometry x="43.86617100371747" width="22.304832713754646" height="20" as="geometry"/>
                </mxCell>
                <mxCell id="nwHU5ip1WEYhQN9irnRJ-120" value="" style="edgeStyle=none;rounded=0;orthogonalLoop=1;jettySize=auto;html=1;fontSize=9;entryX=0.5;entryY=0;entryDx=0;entryDy=0;endArrow=none;endFill=0;" parent="WIyWlLk6GJQsqaUBKTNV-1" source="nwHU5ip1WEYhQN9irnRJ-122" target="nwHU5ip1WEYhQN9irnRJ-127" edge="1">
                    <mxGeometry relative="1" as="geometry">
                        <mxPoint x="395.797249070632" y="424" as="targetPoint"/>
                    </mxGeometry>
                </mxCell>
                <mxCell id="nwHU5ip1WEYhQN9irnRJ-122" value="3.2" style="rounded=0;whiteSpace=wrap;html=1;fontSize=9;" parent="WIyWlLk6GJQsqaUBKTNV-1" vertex="1">
                    <mxGeometry x="384.6448327137547" y="324" width="22.304832713754646" height="20" as="geometry"/>
                </mxCell>
                <mxCell id="nwHU5ip1WEYhQN9irnRJ-123" value="" style="edgeStyle=none;rounded=0;orthogonalLoop=1;jettySize=auto;html=1;fontSize=9;entryX=0.5;entryY=0;entryDx=0;entryDy=0;endArrow=none;endFill=0;" parent="WIyWlLk6GJQsqaUBKTNV-1" target="nwHU5ip1WEYhQN9irnRJ-128" edge="1">
                    <mxGeometry relative="1" as="geometry">
                        <mxPoint x="396" y="344" as="sourcePoint"/>
                    </mxGeometry>
                </mxCell>
                <mxCell id="nwHU5ip1WEYhQN9irnRJ-124" value="" style="edgeStyle=none;rounded=0;orthogonalLoop=1;jettySize=auto;html=1;fontSize=9;exitX=0.5;exitY=1;exitDx=0;exitDy=0;entryX=0.5;entryY=0;entryDx=0;entryDy=0;endArrow=none;endFill=0;" parent="WIyWlLk6GJQsqaUBKTNV-1" source="nwHU5ip1WEYhQN9irnRJ-122" target="nwHU5ip1WEYhQN9irnRJ-126" edge="1">
                    <mxGeometry relative="1" as="geometry">
                        <mxPoint x="373.49241635687736" y="284" as="sourcePoint"/>
                    </mxGeometry>
                </mxCell>
                <object label="" branch="0" id="nwHU5ip1WEYhQN9irnRJ-125">
                    <mxCell style="group;fontSize=9;" parent="WIyWlLk6GJQsqaUBKTNV-1" vertex="1" connectable="0">
                        <mxGeometry x="362.34000000000003" y="364" width="66.17100371747212" height="20" as="geometry"/>
                    </mxCell>
                </object>
                <mxCell id="nwHU5ip1WEYhQN9irnRJ-126" value="4.6" style="rounded=0;whiteSpace=wrap;html=1;fontSize=9;" parent="nwHU5ip1WEYhQN9irnRJ-125" vertex="1">
                    <mxGeometry width="22.304832713754646" height="20" as="geometry"/>
                </mxCell>
                <mxCell id="nwHU5ip1WEYhQN9irnRJ-127" value="" style="rounded=0;whiteSpace=wrap;html=1;fontSize=9;" parent="nwHU5ip1WEYhQN9irnRJ-125" vertex="1">
                    <mxGeometry x="22.304832713754646" width="22.304832713754646" height="20" as="geometry"/>
                </mxCell>
                <mxCell id="nwHU5ip1WEYhQN9irnRJ-128" value="" style="rounded=0;whiteSpace=wrap;html=1;fontSize=9;" parent="nwHU5ip1WEYhQN9irnRJ-125" vertex="1">
                    <mxGeometry x="43.86617100371747" width="22.304832713754646" height="20" as="geometry"/>
                </mxCell>
                <mxCell id="nwHU5ip1WEYhQN9irnRJ-129" value="" style="edgeStyle=none;rounded=0;orthogonalLoop=1;jettySize=auto;html=1;fontSize=9;entryX=0.5;entryY=0;entryDx=0;entryDy=0;endArrow=none;endFill=0;" parent="WIyWlLk6GJQsqaUBKTNV-1" source="nwHU5ip1WEYhQN9irnRJ-131" target="nwHU5ip1WEYhQN9irnRJ-136" edge="1">
                    <mxGeometry relative="1" as="geometry">
                        <mxPoint x="463.457249070632" y="424" as="targetPoint"/>
                    </mxGeometry>
                </mxCell>
                <mxCell id="nwHU5ip1WEYhQN9irnRJ-131" value="3.3" style="rounded=0;whiteSpace=wrap;html=1;fontSize=9;" parent="WIyWlLk6GJQsqaUBKTNV-1" vertex="1">
                    <mxGeometry x="452.30483271375465" y="324" width="22.304832713754646" height="20" as="geometry"/>
                </mxCell>
                <mxCell id="nwHU5ip1WEYhQN9irnRJ-132" value="" style="edgeStyle=none;rounded=0;orthogonalLoop=1;jettySize=auto;html=1;fontSize=9;exitX=0.5;exitY=1;exitDx=0;exitDy=0;entryX=0.5;entryY=0;entryDx=0;entryDy=0;endArrow=none;endFill=0;" parent="WIyWlLk6GJQsqaUBKTNV-1" source="nwHU5ip1WEYhQN9irnRJ-131" target="nwHU5ip1WEYhQN9irnRJ-137" edge="1">
                    <mxGeometry relative="1" as="geometry"/>
                </mxCell>
                <mxCell id="nwHU5ip1WEYhQN9irnRJ-133" value="" style="edgeStyle=none;rounded=0;orthogonalLoop=1;jettySize=auto;html=1;fontSize=9;exitX=0.5;exitY=1;exitDx=0;exitDy=0;entryX=0.5;entryY=0;entryDx=0;entryDy=0;endArrow=none;endFill=0;" parent="WIyWlLk6GJQsqaUBKTNV-1" source="nwHU5ip1WEYhQN9irnRJ-131" target="nwHU5ip1WEYhQN9irnRJ-135" edge="1">
                    <mxGeometry relative="1" as="geometry">
                        <mxPoint x="441.1524163568773" y="284" as="sourcePoint"/>
                    </mxGeometry>
                </mxCell>
                <object label="" branch="0" id="nwHU5ip1WEYhQN9irnRJ-134">
                    <mxCell style="group;fontSize=9;" parent="WIyWlLk6GJQsqaUBKTNV-1" vertex="1" connectable="0">
                        <mxGeometry x="430" y="364" width="66.17100371747212" height="20" as="geometry"/>
                    </mxCell>
                </object>
                <mxCell id="nwHU5ip1WEYhQN9irnRJ-135" value="4.9" style="rounded=0;whiteSpace=wrap;html=1;fontSize=9;" parent="nwHU5ip1WEYhQN9irnRJ-134" vertex="1">
                    <mxGeometry width="22.304832713754646" height="20" as="geometry"/>
                </mxCell>
                <mxCell id="nwHU5ip1WEYhQN9irnRJ-136" value="" style="rounded=0;whiteSpace=wrap;html=1;fontSize=9;" parent="nwHU5ip1WEYhQN9irnRJ-134" vertex="1">
                    <mxGeometry x="22.304832713754646" width="22.304832713754646" height="20" as="geometry"/>
                </mxCell>
                <mxCell id="nwHU5ip1WEYhQN9irnRJ-137" value="" style="rounded=0;whiteSpace=wrap;html=1;fontSize=9;" parent="nwHU5ip1WEYhQN9irnRJ-134" vertex="1">
                    <mxGeometry x="43.86617100371747" width="22.304832713754646" height="20" as="geometry"/>
                </mxCell>
                <mxCell id="nwHU5ip1WEYhQN9irnRJ-138" value="" style="edgeStyle=none;rounded=0;orthogonalLoop=1;jettySize=auto;html=1;fontSize=9;entryX=0.5;entryY=0;entryDx=0;entryDy=0;endArrow=none;endFill=0;" parent="WIyWlLk6GJQsqaUBKTNV-1" source="nwHU5ip1WEYhQN9irnRJ-140" target="nwHU5ip1WEYhQN9irnRJ-145" edge="1">
                    <mxGeometry relative="1" as="geometry">
                        <mxPoint x="529.6272490706319" y="424" as="targetPoint"/>
                    </mxGeometry>
                </mxCell>
                <mxCell id="nwHU5ip1WEYhQN9irnRJ-140" value="3.4" style="rounded=0;whiteSpace=wrap;html=1;fontSize=9;" parent="WIyWlLk6GJQsqaUBKTNV-1" vertex="1">
                    <mxGeometry x="518.4748327137546" y="324" width="22.304832713754646" height="20" as="geometry"/>
                </mxCell>
                <mxCell id="nwHU5ip1WEYhQN9irnRJ-141" value="" style="edgeStyle=none;rounded=0;orthogonalLoop=1;jettySize=auto;html=1;fontSize=9;exitX=0.5;exitY=1;exitDx=0;exitDy=0;entryX=0.5;entryY=0;entryDx=0;entryDy=0;endArrow=none;endFill=0;" parent="WIyWlLk6GJQsqaUBKTNV-1" source="nwHU5ip1WEYhQN9irnRJ-140" target="nwHU5ip1WEYhQN9irnRJ-146" edge="1">
                    <mxGeometry relative="1" as="geometry"/>
                </mxCell>
                <mxCell id="nwHU5ip1WEYhQN9irnRJ-142" value="" style="edgeStyle=none;rounded=0;orthogonalLoop=1;jettySize=auto;html=1;fontSize=9;exitX=0.5;exitY=1;exitDx=0;exitDy=0;entryX=0.5;entryY=0;entryDx=0;entryDy=0;endArrow=none;endFill=0;" parent="WIyWlLk6GJQsqaUBKTNV-1" source="nwHU5ip1WEYhQN9irnRJ-140" target="nwHU5ip1WEYhQN9irnRJ-144" edge="1">
                    <mxGeometry relative="1" as="geometry">
                        <mxPoint x="507.3224163568773" y="284" as="sourcePoint"/>
                    </mxGeometry>
                </mxCell>
                <object label="" branch="0" id="nwHU5ip1WEYhQN9irnRJ-143">
                    <mxCell style="group;fontSize=9;" parent="WIyWlLk6GJQsqaUBKTNV-1" vertex="1" connectable="0">
                        <mxGeometry x="496.17" y="364" width="66.17100371747212" height="20" as="geometry"/>
                    </mxCell>
                </object>
                <mxCell id="nwHU5ip1WEYhQN9irnRJ-144" value="4.12" style="rounded=0;whiteSpace=wrap;html=1;fontSize=9;" parent="nwHU5ip1WEYhQN9irnRJ-143" vertex="1">
                    <mxGeometry width="22.304832713754646" height="20" as="geometry"/>
                </mxCell>
                <mxCell id="nwHU5ip1WEYhQN9irnRJ-145" value="" style="rounded=0;whiteSpace=wrap;html=1;fontSize=9;" parent="nwHU5ip1WEYhQN9irnRJ-143" vertex="1">
                    <mxGeometry x="22.304832713754646" width="22.304832713754646" height="20" as="geometry"/>
                </mxCell>
                <mxCell id="nwHU5ip1WEYhQN9irnRJ-146" value="" style="rounded=0;whiteSpace=wrap;html=1;fontSize=9;" parent="nwHU5ip1WEYhQN9irnRJ-143" vertex="1">
                    <mxGeometry x="43.86617100371747" width="22.304832713754646" height="20" as="geometry"/>
                </mxCell>
                <mxCell id="nwHU5ip1WEYhQN9irnRJ-147" value="" style="edgeStyle=none;rounded=0;orthogonalLoop=1;jettySize=auto;html=1;fontSize=9;entryX=0.5;entryY=0;entryDx=0;entryDy=0;endArrow=none;endFill=0;" parent="WIyWlLk6GJQsqaUBKTNV-1" source="nwHU5ip1WEYhQN9irnRJ-149" target="nwHU5ip1WEYhQN9irnRJ-154" edge="1">
                    <mxGeometry relative="1" as="geometry">
                        <mxPoint x="595.797249070632" y="424" as="targetPoint"/>
                    </mxGeometry>
                </mxCell>
                <mxCell id="nwHU5ip1WEYhQN9irnRJ-149" value="3.5" style="rounded=0;whiteSpace=wrap;html=1;fontSize=9;" parent="WIyWlLk6GJQsqaUBKTNV-1" vertex="1">
                    <mxGeometry x="584.6448327137547" y="324" width="22.304832713754646" height="20" as="geometry"/>
                </mxCell>
                <mxCell id="nwHU5ip1WEYhQN9irnRJ-150" value="" style="edgeStyle=none;rounded=0;orthogonalLoop=1;jettySize=auto;html=1;fontSize=9;exitX=0.5;exitY=1;exitDx=0;exitDy=0;entryX=0.5;entryY=0;entryDx=0;entryDy=0;endArrow=none;endFill=0;" parent="WIyWlLk6GJQsqaUBKTNV-1" source="nwHU5ip1WEYhQN9irnRJ-149" target="nwHU5ip1WEYhQN9irnRJ-155" edge="1">
                    <mxGeometry relative="1" as="geometry"/>
                </mxCell>
                <mxCell id="nwHU5ip1WEYhQN9irnRJ-151" value="" style="edgeStyle=none;rounded=0;orthogonalLoop=1;jettySize=auto;html=1;fontSize=9;exitX=0.5;exitY=1;exitDx=0;exitDy=0;entryX=0.5;entryY=0;entryDx=0;entryDy=0;endArrow=none;endFill=0;" parent="WIyWlLk6GJQsqaUBKTNV-1" source="nwHU5ip1WEYhQN9irnRJ-149" target="nwHU5ip1WEYhQN9irnRJ-153" edge="1">
                    <mxGeometry relative="1" as="geometry">
                        <mxPoint x="573.4924163568774" y="284" as="sourcePoint"/>
                    </mxGeometry>
                </mxCell>
                <object label="" branch="0" id="nwHU5ip1WEYhQN9irnRJ-152">
                    <mxCell style="group;fontSize=9;" parent="WIyWlLk6GJQsqaUBKTNV-1" vertex="1" connectable="0">
                        <mxGeometry x="562.34" y="364" width="66.17100371747212" height="20" as="geometry"/>
                    </mxCell>
                </object>
                <mxCell id="nwHU5ip1WEYhQN9irnRJ-153" value="4.15" style="rounded=0;whiteSpace=wrap;html=1;fontSize=9;" parent="nwHU5ip1WEYhQN9irnRJ-152" vertex="1">
                    <mxGeometry width="22.304832713754646" height="20" as="geometry"/>
                </mxCell>
                <mxCell id="nwHU5ip1WEYhQN9irnRJ-154" value="" style="rounded=0;whiteSpace=wrap;html=1;fontSize=9;" parent="nwHU5ip1WEYhQN9irnRJ-152" vertex="1">
                    <mxGeometry x="22.304832713754646" width="22.304832713754646" height="20" as="geometry"/>
                </mxCell>
                <mxCell id="nwHU5ip1WEYhQN9irnRJ-155" value="" style="rounded=0;whiteSpace=wrap;html=1;fontSize=9;" parent="nwHU5ip1WEYhQN9irnRJ-152" vertex="1">
                    <mxGeometry x="43.86617100371747" width="22.304832713754646" height="20" as="geometry"/>
                </mxCell>
                <object label="" branch="0" id="nwHU5ip1WEYhQN9irnRJ-172">
                    <mxCell style="group;fontSize=9;" parent="WIyWlLk6GJQsqaUBKTNV-1" vertex="1" connectable="0">
                        <mxGeometry x="230" y="492" width="66.17100371747212" height="20" as="geometry"/>
                    </mxCell>
                </object>
                <mxCell id="nwHU5ip1WEYhQN9irnRJ-173" value="4.0" style="rounded=0;whiteSpace=wrap;html=1;fontSize=9;" parent="nwHU5ip1WEYhQN9irnRJ-172" vertex="1">
                    <mxGeometry width="22.304832713754646" height="20" as="geometry"/>
                </mxCell>
                <mxCell id="nwHU5ip1WEYhQN9irnRJ-174" value="" style="rounded=0;whiteSpace=wrap;html=1;fontSize=9;" parent="nwHU5ip1WEYhQN9irnRJ-172" vertex="1">
                    <mxGeometry x="22.304832713754646" width="22.304832713754646" height="20" as="geometry"/>
                </mxCell>
                <mxCell id="nwHU5ip1WEYhQN9irnRJ-175" value="" style="rounded=0;whiteSpace=wrap;html=1;fontSize=9;" parent="nwHU5ip1WEYhQN9irnRJ-172" vertex="1">
                    <mxGeometry x="43.86617100371747" width="22.304832713754646" height="20" as="geometry"/>
                </mxCell>
                <object label="" branch="0" id="nwHU5ip1WEYhQN9irnRJ-180">
                    <mxCell style="group;fontSize=9;" parent="WIyWlLk6GJQsqaUBKTNV-1" vertex="1" connectable="0">
                        <mxGeometry x="296.17" y="492" width="66.17100371747212" height="20" as="geometry"/>
                    </mxCell>
                </object>
                <mxCell id="nwHU5ip1WEYhQN9irnRJ-181" value="4.3" style="rounded=0;whiteSpace=wrap;html=1;fontSize=9;" parent="nwHU5ip1WEYhQN9irnRJ-180" vertex="1">
                    <mxGeometry width="22.304832713754646" height="20" as="geometry"/>
                </mxCell>
                <mxCell id="nwHU5ip1WEYhQN9irnRJ-182" value="" style="rounded=0;whiteSpace=wrap;html=1;fontSize=9;" parent="nwHU5ip1WEYhQN9irnRJ-180" vertex="1">
                    <mxGeometry x="22.304832713754646" width="22.304832713754646" height="20" as="geometry"/>
                </mxCell>
                <mxCell id="nwHU5ip1WEYhQN9irnRJ-183" value="" style="rounded=0;whiteSpace=wrap;html=1;fontSize=9;" parent="nwHU5ip1WEYhQN9irnRJ-180" vertex="1">
                    <mxGeometry x="43.86617100371747" width="22.304832713754646" height="20" as="geometry"/>
                </mxCell>
                <object label="" branch="0" id="nwHU5ip1WEYhQN9irnRJ-188">
                    <mxCell style="group;fontSize=9;" parent="WIyWlLk6GJQsqaUBKTNV-1" vertex="1" connectable="0">
                        <mxGeometry x="362.34000000000003" y="492" width="66.17100371747212" height="20" as="geometry"/>
                    </mxCell>
                </object>
                <mxCell id="nwHU5ip1WEYhQN9irnRJ-189" value="4.6" style="rounded=0;whiteSpace=wrap;html=1;fontSize=9;" parent="nwHU5ip1WEYhQN9irnRJ-188" vertex="1">
                    <mxGeometry width="22.304832713754646" height="20" as="geometry"/>
                </mxCell>
                <mxCell id="nwHU5ip1WEYhQN9irnRJ-190" value="" style="rounded=0;whiteSpace=wrap;html=1;fontSize=9;" parent="nwHU5ip1WEYhQN9irnRJ-188" vertex="1">
                    <mxGeometry x="22.304832713754646" width="22.304832713754646" height="20" as="geometry"/>
                </mxCell>
                <mxCell id="nwHU5ip1WEYhQN9irnRJ-191" value="" style="rounded=0;whiteSpace=wrap;html=1;fontSize=9;" parent="nwHU5ip1WEYhQN9irnRJ-188" vertex="1">
                    <mxGeometry x="43.86617100371747" width="22.304832713754646" height="20" as="geometry"/>
                </mxCell>
                <object label="" branch="0" id="nwHU5ip1WEYhQN9irnRJ-196">
                    <mxCell style="group;fontSize=9;" parent="WIyWlLk6GJQsqaUBKTNV-1" vertex="1" connectable="0">
                        <mxGeometry x="430" y="492" width="66.17100371747212" height="20" as="geometry"/>
                    </mxCell>
                </object>
                <mxCell id="nwHU5ip1WEYhQN9irnRJ-197" value="4.9" style="rounded=0;whiteSpace=wrap;html=1;fontSize=9;" parent="nwHU5ip1WEYhQN9irnRJ-196" vertex="1">
                    <mxGeometry width="22.304832713754646" height="20" as="geometry"/>
                </mxCell>
                <mxCell id="nwHU5ip1WEYhQN9irnRJ-198" value="" style="rounded=0;whiteSpace=wrap;html=1;fontSize=9;" parent="nwHU5ip1WEYhQN9irnRJ-196" vertex="1">
                    <mxGeometry x="22.304832713754646" width="22.304832713754646" height="20" as="geometry"/>
                </mxCell>
                <mxCell id="nwHU5ip1WEYhQN9irnRJ-199" value="" style="rounded=0;whiteSpace=wrap;html=1;fontSize=9;" parent="nwHU5ip1WEYhQN9irnRJ-196" vertex="1">
                    <mxGeometry x="43.86617100371747" width="22.304832713754646" height="20" as="geometry"/>
                </mxCell>
                <object label="" branch="0" id="nwHU5ip1WEYhQN9irnRJ-204">
                    <mxCell style="group;fontSize=9;" parent="WIyWlLk6GJQsqaUBKTNV-1" vertex="1" connectable="0">
                        <mxGeometry x="496.17" y="492" width="66.17100371747212" height="20" as="geometry"/>
                    </mxCell>
                </object>
                <mxCell id="nwHU5ip1WEYhQN9irnRJ-205" value="4.12" style="rounded=0;whiteSpace=wrap;html=1;fontSize=9;" parent="nwHU5ip1WEYhQN9irnRJ-204" vertex="1">
                    <mxGeometry width="22.304832713754646" height="20" as="geometry"/>
                </mxCell>
                <mxCell id="nwHU5ip1WEYhQN9irnRJ-206" value="" style="rounded=0;whiteSpace=wrap;html=1;fontSize=9;" parent="nwHU5ip1WEYhQN9irnRJ-204" vertex="1">
                    <mxGeometry x="22.304832713754646" width="22.304832713754646" height="20" as="geometry"/>
                </mxCell>
                <mxCell id="nwHU5ip1WEYhQN9irnRJ-207" value="" style="rounded=0;whiteSpace=wrap;html=1;fontSize=9;" parent="nwHU5ip1WEYhQN9irnRJ-204" vertex="1">
                    <mxGeometry x="43.86617100371747" width="22.304832713754646" height="20" as="geometry"/>
                </mxCell>
                <object label="" branch="0" id="nwHU5ip1WEYhQN9irnRJ-212">
                    <mxCell style="group;fontSize=9;" parent="WIyWlLk6GJQsqaUBKTNV-1" vertex="1" connectable="0">
                        <mxGeometry x="562.34" y="492" width="66.17100371747212" height="20" as="geometry"/>
                    </mxCell>
                </object>
                <mxCell id="nwHU5ip1WEYhQN9irnRJ-213" value="4.15" style="rounded=0;whiteSpace=wrap;html=1;fontSize=9;" parent="nwHU5ip1WEYhQN9irnRJ-212" vertex="1">
                    <mxGeometry width="22.304832713754646" height="20" as="geometry"/>
                </mxCell>
                <mxCell id="nwHU5ip1WEYhQN9irnRJ-214" value="" style="rounded=0;whiteSpace=wrap;html=1;fontSize=9;" parent="nwHU5ip1WEYhQN9irnRJ-212" vertex="1">
                    <mxGeometry x="22.304832713754646" width="22.304832713754646" height="20" as="geometry"/>
                </mxCell>
                <mxCell id="nwHU5ip1WEYhQN9irnRJ-215" value="" style="rounded=0;whiteSpace=wrap;html=1;fontSize=9;" parent="nwHU5ip1WEYhQN9irnRJ-212" vertex="1">
                    <mxGeometry x="43.86617100371747" width="22.304832713754646" height="20" as="geometry"/>
                </mxCell>
                <mxCell id="nwHU5ip1WEYhQN9irnRJ-216" value="" style="edgeStyle=none;rounded=0;orthogonalLoop=1;jettySize=auto;html=1;fontSize=9;entryX=0.5;entryY=0;entryDx=0;entryDy=0;endArrow=none;endFill=0;" parent="WIyWlLk6GJQsqaUBKTNV-1" source="nwHU5ip1WEYhQN9irnRJ-217" target="nwHU5ip1WEYhQN9irnRJ-222" edge="1">
                    <mxGeometry relative="1" as="geometry">
                        <mxPoint x="63.457249070631974" y="552" as="targetPoint"/>
                    </mxGeometry>
                </mxCell>
                <mxCell id="nwHU5ip1WEYhQN9irnRJ-217" value="3.6" style="rounded=0;whiteSpace=wrap;html=1;fontSize=9;" parent="WIyWlLk6GJQsqaUBKTNV-1" vertex="1">
                    <mxGeometry x="52.30483271375465" y="452" width="22.304832713754646" height="20" as="geometry"/>
                </mxCell>
                <mxCell id="nwHU5ip1WEYhQN9irnRJ-218" value="" style="edgeStyle=none;rounded=0;orthogonalLoop=1;jettySize=auto;html=1;fontSize=9;exitX=0.5;exitY=1;exitDx=0;exitDy=0;entryX=0.5;entryY=0;entryDx=0;entryDy=0;endArrow=none;endFill=0;" parent="WIyWlLk6GJQsqaUBKTNV-1" source="nwHU5ip1WEYhQN9irnRJ-217" target="nwHU5ip1WEYhQN9irnRJ-223" edge="1">
                    <mxGeometry relative="1" as="geometry"/>
                </mxCell>
                <mxCell id="nwHU5ip1WEYhQN9irnRJ-219" value="" style="edgeStyle=none;rounded=0;orthogonalLoop=1;jettySize=auto;html=1;fontSize=9;exitX=0.5;exitY=1;exitDx=0;exitDy=0;entryX=0.5;entryY=0;entryDx=0;entryDy=0;endArrow=none;endFill=0;" parent="WIyWlLk6GJQsqaUBKTNV-1" source="nwHU5ip1WEYhQN9irnRJ-217" target="nwHU5ip1WEYhQN9irnRJ-221" edge="1">
                    <mxGeometry relative="1" as="geometry">
                        <mxPoint x="41.152416356877325" y="412" as="sourcePoint"/>
                    </mxGeometry>
                </mxCell>
                <object label="" branch="0" id="nwHU5ip1WEYhQN9irnRJ-220">
                    <mxCell style="group;fontSize=9;" parent="WIyWlLk6GJQsqaUBKTNV-1" vertex="1" connectable="0">
                        <mxGeometry x="30" y="492" width="66.17100371747212" height="20" as="geometry"/>
                    </mxCell>
                </object>
                <mxCell id="nwHU5ip1WEYhQN9irnRJ-221" value="4.18" style="rounded=0;whiteSpace=wrap;html=1;fontSize=9;" parent="nwHU5ip1WEYhQN9irnRJ-220" vertex="1">
                    <mxGeometry width="22.304832713754646" height="20" as="geometry"/>
                </mxCell>
                <mxCell id="nwHU5ip1WEYhQN9irnRJ-222" value="" style="rounded=0;whiteSpace=wrap;html=1;fontSize=9;" parent="nwHU5ip1WEYhQN9irnRJ-220" vertex="1">
                    <mxGeometry x="22.304832713754646" width="22.304832713754646" height="20" as="geometry"/>
                </mxCell>
                <mxCell id="nwHU5ip1WEYhQN9irnRJ-223" value="" style="rounded=0;whiteSpace=wrap;html=1;fontSize=9;" parent="nwHU5ip1WEYhQN9irnRJ-220" vertex="1">
                    <mxGeometry x="43.86617100371747" width="22.304832713754646" height="20" as="geometry"/>
                </mxCell>
                <mxCell id="nwHU5ip1WEYhQN9irnRJ-224" value="" style="edgeStyle=none;rounded=0;orthogonalLoop=1;jettySize=auto;html=1;fontSize=9;entryX=0.5;entryY=0;entryDx=0;entryDy=0;endArrow=none;endFill=0;" parent="WIyWlLk6GJQsqaUBKTNV-1" source="nwHU5ip1WEYhQN9irnRJ-225" target="nwHU5ip1WEYhQN9irnRJ-230" edge="1">
                    <mxGeometry relative="1" as="geometry">
                        <mxPoint x="129.627249070632" y="552" as="targetPoint"/>
                    </mxGeometry>
                </mxCell>
                <mxCell id="nwHU5ip1WEYhQN9irnRJ-225" value="3.7" style="rounded=0;whiteSpace=wrap;html=1;fontSize=9;" parent="WIyWlLk6GJQsqaUBKTNV-1" vertex="1">
                    <mxGeometry x="118.47483271375461" y="452" width="22.304832713754646" height="20" as="geometry"/>
                </mxCell>
                <mxCell id="nwHU5ip1WEYhQN9irnRJ-226" value="" style="edgeStyle=none;rounded=0;orthogonalLoop=1;jettySize=auto;html=1;fontSize=9;entryX=0.5;entryY=0;entryDx=0;entryDy=0;endArrow=none;endFill=0;" parent="WIyWlLk6GJQsqaUBKTNV-1" target="nwHU5ip1WEYhQN9irnRJ-231" edge="1">
                    <mxGeometry relative="1" as="geometry">
                        <mxPoint x="130.00000000000023" y="472" as="sourcePoint"/>
                    </mxGeometry>
                </mxCell>
                <mxCell id="nwHU5ip1WEYhQN9irnRJ-227" value="" style="edgeStyle=none;rounded=0;orthogonalLoop=1;jettySize=auto;html=1;fontSize=9;exitX=0.5;exitY=1;exitDx=0;exitDy=0;entryX=0.5;entryY=0;entryDx=0;entryDy=0;endArrow=none;endFill=0;" parent="WIyWlLk6GJQsqaUBKTNV-1" source="nwHU5ip1WEYhQN9irnRJ-225" target="nwHU5ip1WEYhQN9irnRJ-229" edge="1">
                    <mxGeometry relative="1" as="geometry">
                        <mxPoint x="107.32241635687734" y="412" as="sourcePoint"/>
                    </mxGeometry>
                </mxCell>
                <object label="" branch="0" id="nwHU5ip1WEYhQN9irnRJ-228">
                    <mxCell style="group;fontSize=9;" parent="WIyWlLk6GJQsqaUBKTNV-1" vertex="1" connectable="0">
                        <mxGeometry x="96.17000000000002" y="492" width="66.17100371747212" height="20" as="geometry"/>
                    </mxCell>
                </object>
                <mxCell id="nwHU5ip1WEYhQN9irnRJ-229" value="4.21" style="rounded=0;whiteSpace=wrap;html=1;fontSize=9;" parent="nwHU5ip1WEYhQN9irnRJ-228" vertex="1">
                    <mxGeometry width="22.304832713754646" height="20" as="geometry"/>
                </mxCell>
                <mxCell id="nwHU5ip1WEYhQN9irnRJ-230" value="" style="rounded=0;whiteSpace=wrap;html=1;fontSize=9;" parent="nwHU5ip1WEYhQN9irnRJ-228" vertex="1">
                    <mxGeometry x="22.304832713754646" width="22.304832713754646" height="20" as="geometry"/>
                </mxCell>
                <mxCell id="nwHU5ip1WEYhQN9irnRJ-231" value="" style="rounded=0;whiteSpace=wrap;html=1;fontSize=9;" parent="nwHU5ip1WEYhQN9irnRJ-228" vertex="1">
                    <mxGeometry x="43.86617100371747" width="22.304832713754646" height="20" as="geometry"/>
                </mxCell>
                <mxCell id="nwHU5ip1WEYhQN9irnRJ-276" value="" style="edgeStyle=none;rounded=0;orthogonalLoop=1;jettySize=auto;html=1;fontSize=9;entryX=0.5;entryY=0;entryDx=0;entryDy=0;endArrow=none;endFill=0;" parent="WIyWlLk6GJQsqaUBKTNV-1" source="nwHU5ip1WEYhQN9irnRJ-277" target="nwHU5ip1WEYhQN9irnRJ-282" edge="1">
                    <mxGeometry relative="1" as="geometry">
                        <mxPoint x="197.287249070632" y="552" as="targetPoint"/>
                    </mxGeometry>
                </mxCell>
                <mxCell id="nwHU5ip1WEYhQN9irnRJ-277" value="3.8" style="rounded=0;whiteSpace=wrap;html=1;fontSize=9;" parent="WIyWlLk6GJQsqaUBKTNV-1" vertex="1">
                    <mxGeometry x="186.1348327137546" y="452" width="22.304832713754646" height="20" as="geometry"/>
                </mxCell>
                <mxCell id="nwHU5ip1WEYhQN9irnRJ-278" value="" style="edgeStyle=none;rounded=0;orthogonalLoop=1;jettySize=auto;html=1;fontSize=9;entryX=0.5;entryY=0;entryDx=0;entryDy=0;endArrow=none;endFill=0;" parent="WIyWlLk6GJQsqaUBKTNV-1" target="nwHU5ip1WEYhQN9irnRJ-283" edge="1">
                    <mxGeometry relative="1" as="geometry">
                        <mxPoint x="197.66000000000022" y="472" as="sourcePoint"/>
                    </mxGeometry>
                </mxCell>
                <mxCell id="nwHU5ip1WEYhQN9irnRJ-279" value="" style="edgeStyle=none;rounded=0;orthogonalLoop=1;jettySize=auto;html=1;fontSize=9;exitX=0.5;exitY=1;exitDx=0;exitDy=0;entryX=0.5;entryY=0;entryDx=0;entryDy=0;endArrow=none;endFill=0;" parent="WIyWlLk6GJQsqaUBKTNV-1" source="nwHU5ip1WEYhQN9irnRJ-277" target="nwHU5ip1WEYhQN9irnRJ-281" edge="1">
                    <mxGeometry relative="1" as="geometry">
                        <mxPoint x="174.98241635687734" y="412" as="sourcePoint"/>
                    </mxGeometry>
                </mxCell>
                <object label="" branch="0" id="nwHU5ip1WEYhQN9irnRJ-280">
                    <mxCell style="group;fontSize=9;" parent="WIyWlLk6GJQsqaUBKTNV-1" vertex="1" connectable="0">
                        <mxGeometry x="163.83" y="492" width="66.17100371747213" height="20" as="geometry"/>
                    </mxCell>
                </object>
                <mxCell id="nwHU5ip1WEYhQN9irnRJ-281" value="4.24" style="rounded=0;whiteSpace=wrap;html=1;fontSize=9;" parent="nwHU5ip1WEYhQN9irnRJ-280" vertex="1">
                    <mxGeometry width="22.304832713754646" height="20" as="geometry"/>
                </mxCell>
                <mxCell id="nwHU5ip1WEYhQN9irnRJ-282" value="" style="rounded=0;whiteSpace=wrap;html=1;fontSize=9;" parent="nwHU5ip1WEYhQN9irnRJ-280" vertex="1">
                    <mxGeometry x="22.304832713754646" width="22.304832713754646" height="20" as="geometry"/>
                </mxCell>
                <mxCell id="nwHU5ip1WEYhQN9irnRJ-283" value="" style="rounded=0;whiteSpace=wrap;html=1;fontSize=9;" parent="nwHU5ip1WEYhQN9irnRJ-280" vertex="1">
                    <mxGeometry x="43.86617100371747" width="22.304832713754646" height="20" as="geometry"/>
                </mxCell>
                <mxCell id="nwHU5ip1WEYhQN9irnRJ-287" value="new queue head" style="rounded=0;whiteSpace=wrap;html=1;fontSize=9;" parent="WIyWlLk6GJQsqaUBKTNV-1" vertex="1">
                    <mxGeometry x="230" y="403" width="80" height="20" as="geometry"/>
                </mxCell>
                <mxCell id="nwHU5ip1WEYhQN9irnRJ-288" value="" style="edgeStyle=none;rounded=0;orthogonalLoop=1;jettySize=auto;html=1;fontSize=9;endArrow=none;endFill=0;exitX=0.5;exitY=1;exitDx=0;exitDy=0;" parent="WIyWlLk6GJQsqaUBKTNV-1" source="nwHU5ip1WEYhQN9irnRJ-108" target="nwHU5ip1WEYhQN9irnRJ-287" edge="1">
                    <mxGeometry relative="1" as="geometry"/>
                </mxCell>
                <mxCell id="1" value="" style="edgeStyle=orthogonalEdgeStyle;curved=1;rounded=0;orthogonalLoop=1;jettySize=auto;html=1;endArrow=classicThin;endFill=1;entryX=0.5;entryY=0;entryDx=0;entryDy=0;exitX=0.5;exitY=0;exitDx=0;exitDy=0;" edge="1" parent="WIyWlLk6GJQsqaUBKTNV-1" source="nwHU5ip1WEYhQN9irnRJ-81" target="nwHU5ip1WEYhQN9irnRJ-104">
                    <mxGeometry relative="1" as="geometry"/>
                </mxCell>
                <mxCell id="2" value="" style="edgeStyle=orthogonalEdgeStyle;curved=1;rounded=0;orthogonalLoop=1;jettySize=auto;html=1;endArrow=classicThin;endFill=1;entryX=0.5;entryY=0;entryDx=0;entryDy=0;exitX=0.5;exitY=0;exitDx=0;exitDy=0;" edge="1" parent="WIyWlLk6GJQsqaUBKTNV-1" source="nwHU5ip1WEYhQN9irnRJ-82" target="nwHU5ip1WEYhQN9irnRJ-113">
                    <mxGeometry relative="1" as="geometry"/>
                </mxCell>
                <mxCell id="3" value="" style="edgeStyle=orthogonalEdgeStyle;curved=1;rounded=0;orthogonalLoop=1;jettySize=auto;html=1;endArrow=classicThin;endFill=1;entryX=0.5;entryY=0;entryDx=0;entryDy=0;exitX=0.5;exitY=0;exitDx=0;exitDy=0;" edge="1" parent="WIyWlLk6GJQsqaUBKTNV-1" source="nwHU5ip1WEYhQN9irnRJ-83" target="nwHU5ip1WEYhQN9irnRJ-122">
                    <mxGeometry relative="1" as="geometry"/>
                </mxCell>
                <mxCell id="4" value="" style="edgeStyle=orthogonalEdgeStyle;curved=1;rounded=0;orthogonalLoop=1;jettySize=auto;html=1;endArrow=classicThin;endFill=1;entryX=0.5;entryY=0;entryDx=0;entryDy=0;exitX=0.5;exitY=0;exitDx=0;exitDy=0;" edge="1" parent="WIyWlLk6GJQsqaUBKTNV-1" source="nwHU5ip1WEYhQN9irnRJ-90" target="nwHU5ip1WEYhQN9irnRJ-131">
                    <mxGeometry relative="1" as="geometry"/>
                </mxCell>
                <mxCell id="5" value="" style="edgeStyle=orthogonalEdgeStyle;curved=1;rounded=0;orthogonalLoop=1;jettySize=auto;html=1;endArrow=classicThin;endFill=1;entryX=0.5;entryY=0;entryDx=0;entryDy=0;exitX=0.5;exitY=0;exitDx=0;exitDy=0;" edge="1" parent="WIyWlLk6GJQsqaUBKTNV-1" source="nwHU5ip1WEYhQN9irnRJ-91" target="nwHU5ip1WEYhQN9irnRJ-140">
                    <mxGeometry relative="1" as="geometry"/>
                </mxCell>
                <mxCell id="7" value="" style="edgeStyle=orthogonalEdgeStyle;curved=1;rounded=0;orthogonalLoop=1;jettySize=auto;html=1;endArrow=classicThin;endFill=1;entryX=0.5;entryY=0;entryDx=0;entryDy=0;exitX=0.5;exitY=0;exitDx=0;exitDy=0;" edge="1" parent="WIyWlLk6GJQsqaUBKTNV-1" source="nwHU5ip1WEYhQN9irnRJ-92" target="nwHU5ip1WEYhQN9irnRJ-149">
                    <mxGeometry relative="1" as="geometry"/>
                </mxCell>
                <mxCell id="8" value="" style="edgeStyle=orthogonalEdgeStyle;curved=1;rounded=0;orthogonalLoop=1;jettySize=auto;html=1;endArrow=classicThin;endFill=1;entryX=0.5;entryY=0;entryDx=0;entryDy=0;exitX=0.5;exitY=1;exitDx=0;exitDy=0;" edge="1" parent="WIyWlLk6GJQsqaUBKTNV-1" source="nwHU5ip1WEYhQN9irnRJ-99" target="nwHU5ip1WEYhQN9irnRJ-217">
                    <mxGeometry relative="1" as="geometry"/>
                </mxCell>
                <mxCell id="9" value="" style="edgeStyle=orthogonalEdgeStyle;curved=1;rounded=0;orthogonalLoop=1;jettySize=auto;html=1;endArrow=classicThin;endFill=1;entryX=0.5;entryY=0;entryDx=0;entryDy=0;exitX=0.5;exitY=1;exitDx=0;exitDy=0;" edge="1" parent="WIyWlLk6GJQsqaUBKTNV-1" source="nwHU5ip1WEYhQN9irnRJ-100" target="nwHU5ip1WEYhQN9irnRJ-225">
                    <mxGeometry relative="1" as="geometry"/>
                </mxCell>
                <mxCell id="10" value="" style="edgeStyle=orthogonalEdgeStyle;curved=1;rounded=0;orthogonalLoop=1;jettySize=auto;html=1;endArrow=classicThin;endFill=1;entryX=0.5;entryY=0;entryDx=0;entryDy=0;" edge="1" parent="WIyWlLk6GJQsqaUBKTNV-1" source="nwHU5ip1WEYhQN9irnRJ-101" target="nwHU5ip1WEYhQN9irnRJ-277">
                    <mxGeometry relative="1" as="geometry"/>
                </mxCell>
                <mxCell id="12" value="&lt;div align=&quot;left&quot;&gt;&lt;b&gt;Initial tree&lt;/b&gt;&lt;/div&gt;&lt;div align=&quot;left&quot;&gt;- last level stores in heap-queue&lt;/div&gt;" style="rounded=0;whiteSpace=wrap;html=1;fontSize=9;" vertex="1" parent="WIyWlLk6GJQsqaUBKTNV-1">
                    <mxGeometry x="30" y="33" width="170" height="50" as="geometry"/>
                </mxCell>
                <mxCell id="14" value="new queue tail" style="rounded=0;whiteSpace=wrap;html=1;fontSize=9;" vertex="1" parent="WIyWlLk6GJQsqaUBKTNV-1">
                    <mxGeometry x="220" y="452" width="70.74" height="20" as="geometry"/>
                </mxCell>
                <mxCell id="15" value="" style="rounded=0;orthogonalLoop=1;jettySize=auto;html=1;endArrow=none;endFill=0;exitX=0.5;exitY=0;exitDx=0;exitDy=0;" edge="1" parent="WIyWlLk6GJQsqaUBKTNV-1" source="nwHU5ip1WEYhQN9irnRJ-283" target="14">
                    <mxGeometry relative="1" as="geometry"/>
                </mxCell>
            </root>
        </mxGraphModel>
    </diagram>
</mxfile>